<svg xmlns="http://www.w3.org/2000/svg" width="524" height="86" viewBox="398 470 524 86" role="img" aria-labelledby="title desc">
  <title id="title">SMSPusher wordmark</title>
  <desc id="desc">The SMSPusher wordmark separated from the logo mark.</desc>
  <path fill="#28313B" fill-rule="nonzero" d="M476.132690,478.495178   C487.612610,478.494659 487.578583,478.508423 491.646301,488.558380   C496.444489,500.413025 501.309143,512.240662 506.523682,525.007202   C510.558014,515.148743 514.250671,506.155945 517.917725,497.152710   C520.050598,491.916077 521.956177,486.574188 524.377625,481.476135   C525.020752,480.122101 527.140076,478.773712 528.670227,478.664490   C533.634705,478.310150 538.640259,478.532043 543.957886,478.532043   C543.957886,501.678009 543.957886,524.586914 543.957886,547.718018   C539.454102,547.718018 535.005554,547.718018 530.166260,547.718018   C530.166260,533.363647 530.166260,518.975037 530.166260,504.586395   C529.795593,504.454498 529.424927,504.322601 529.054321,504.190704   C528.366943,505.682678 527.612305,507.147675 527.002930,508.670837   C522.370850,520.249817 517.594604,531.776062 513.261536,543.466431   C511.985931,546.907959 510.070129,547.473755 506.929657,547.325195   C503.919739,547.182800 501.419830,547.552734 499.932556,543.641541   C494.919800,530.459412 489.390289,517.473816 483.311768,504.490204   C483.311768,518.765747 483.311768,533.041199 483.311768,547.626465   C478.239899,547.626465 473.679291,547.626465 468.912231,547.626465   C468.912231,524.752319 468.912231,501.962952 468.912231,478.494293   C471.164795,478.494293 473.413177,478.494293 476.132690,478.495178  z
M584.410583,490.121124   C581.359619,490.311127 578.344788,489.829529 576.193176,490.972778   C573.865112,492.209747 571.018982,494.859406 570.844788,497.084381   C570.673889,499.266998 573.090759,502.479156 575.252197,503.813324   C578.111572,505.578278 581.839905,505.914429 585.171509,506.940369   C589.291992,508.209229 593.561523,509.176056 597.457825,510.951294   C604.578247,514.195618 608.469666,519.848022 608.393738,527.910339   C608.317871,535.964172 604.982117,542.360962 597.648560,545.670349   C586.617493,550.648376 575.233826,550.672974 564.411621,545.017395   C557.078308,541.185059 553.523499,534.670349 553.757629,526.019531   C558.535522,526.019531 562.991272,526.019531 567.417786,526.019531   C571.396484,535.212097 578.570862,538.826294 587.252747,535.203003   C589.855957,534.116577 592.854187,530.867371 593.145142,528.320435   C593.383423,526.234619 590.320251,522.852051 587.911743,521.599304   C584.311035,519.726318 579.969727,519.318298 576.000793,518.100098   C572.360413,516.982727 568.587769,516.021301 565.235352,514.290161   C552.546509,507.737701 551.444458,491.511566 562.946899,482.998627   C572.436646,475.975281 588.494812,475.482605 598.388916,481.926208   C604.273315,485.758484 607.146912,491.234009 607.440308,498.668488   C603.441467,498.668488 599.654724,498.808807 595.891235,498.574493   C594.891296,498.512207 593.453796,497.500732 593.090637,496.580383   C591.568359,492.722473 588.642151,490.933411 584.410583,490.121124  z
M448.715332,545.841675   C438.890533,550.018494 429.218048,550.104431 419.597137,546.827515   C410.260651,543.647461 404.967377,535.786133 405.245361,526.090881   C409.836060,526.090881 414.437683,526.090881 419.040710,526.097717   C422.604828,535.268921 430.517914,539.044495 439.211517,535.024475   C441.639282,533.901855 444.330811,530.725464 444.557617,528.274414   C444.748535,526.210327 441.991852,522.935730 439.732727,521.793579   C435.952026,519.882080 431.502686,519.324585 427.382843,518.042664   C423.900238,516.958923 420.325836,515.983398 417.069672,514.391968   C405.018311,508.501923 402.968567,493.541412 412.817200,484.436279   C422.296906,475.672241 441.273682,475.039825 451.352264,483.135437   C456.181824,487.014832 458.528534,492.096405 458.988922,498.508484   C454.346405,498.508484 449.913818,498.508484 445.404907,498.508484   C441.556702,490.467865 435.160797,487.520905 427.323456,491.068878   C425.027100,492.108429 422.344299,495.169373 422.258301,497.397247   C422.174530,499.568420 424.725098,502.903900 426.935425,503.880524   C431.591553,505.937836 436.821625,506.655975 441.743500,508.161194   C449.427765,510.511200 456.525848,513.776184 459.024902,522.389282   C461.714813,531.660156 458.100433,539.926819 448.715332,545.841675  z
M647.406738,522.421387   C640.828064,522.484558 634.688843,522.484558 627.965576,522.484558   C627.965576,531.098145 627.965576,539.314270 627.965576,547.750488   C624.806396,547.750488 622.229614,547.750488 619.367554,547.750488   C619.367554,524.732666 619.367554,501.866425 619.367554,479.142883   C629.851440,479.142883 640.364624,478.229248 650.640198,479.400452   C660.865601,480.565918 666.931763,490.157562 666.589233,501.518951   C666.236267,513.226746 659.670654,520.526733 647.406738,522.421387  M627.898376,488.658997   C627.898376,497.393494 627.898376,506.127960 627.898376,515.022888   C634.005371,515.022888 639.482544,515.219788 644.940063,514.975342   C652.543274,514.634827 657.444336,509.768524 657.946472,502.502167   C658.558044,493.650848 654.525208,487.374207 646.689697,486.381104   C640.956543,485.654449 635.076172,486.050354 629.262024,486.078217   C628.809998,486.080383 628.362915,487.127686 627.898376,488.658997  z
M839.507202,540.464905   C833.159790,531.056885 832.542542,521.195068 835.806519,511.024109   C839.236389,500.336395 849.092163,494.058899 860.119202,495.134552   C871.165466,496.212128 878.663757,503.780670 880.033813,515.395691   C880.377502,518.309692 880.356995,521.266602 880.526550,524.657471   C867.605774,524.657471 855.341736,524.657471 843.112488,524.657471   C842.680664,532.382996 846.417480,538.402405 852.778809,540.710815   C860.200195,543.403870 866.720093,541.034180 872.284546,533.384460   C874.494934,533.966003 876.846191,534.584656 879.777893,535.355957   C877.127563,542.152100 872.879517,546.654236 866.028748,548.139099   C856.034912,550.305237 846.762817,549.370178 839.507202,540.464905  M865.598389,504.670013   C860.200500,501.628845 854.760132,501.548370 849.570984,504.949921   C845.175110,507.831482 843.221313,512.168457 842.670837,517.486328   C852.772217,517.486328 862.212524,517.486328 871.868835,517.486328   C871.807434,512.337158 870.023560,508.269196 865.598389,504.670013  z
M718.814209,525.000000   C718.813782,532.802734 718.813782,540.105469 718.813782,547.710327   C716.007385,547.710327 713.585388,547.710327 710.662537,547.710327   C710.513489,545.630371 710.355042,543.419678 710.264404,542.154541   C706.126038,544.290039 702.087769,547.471497 697.564331,548.483032   C687.683105,550.692688 678.732178,544.412048 678.019043,534.164795   C677.145386,521.610596 677.810791,508.949280 677.810791,496.100250   C680.400757,496.100250 682.995239,496.100250 685.902954,496.100250   C685.902954,506.637329 685.870178,516.949646 685.913269,527.261658   C685.948120,535.608704 690.357422,540.904114 697.175110,540.924988   C704.648682,540.947876 710.046326,535.553345 710.182373,527.457764   C710.355896,517.135071 710.224487,506.807251 710.224487,496.170013   C713.044312,496.170013 715.623962,496.170013 718.814697,496.170013   C718.814697,505.636810 718.814697,515.068420 718.814209,525.000000  z
M757.839478,540.047913   C764.658203,535.503357 761.824280,528.311035 755.570984,526.832214   C751.528809,525.876404 747.460754,525.008362 743.462891,523.891479   C735.400024,521.638916 731.423706,517.213684 731.321594,510.647186   C731.216614,503.904999 735.853943,498.341339 743.484680,496.054260   C755.230774,492.533752 765.795166,497.181244 769.411682,507.885803   C767.197144,508.462769 765.011841,509.032135 762.450195,509.699524   C759.217529,503.965454 754.432861,501.119751 747.644348,502.633423   C743.662781,503.521149 740.183899,505.050110 739.942993,509.776825   C739.714355,514.263733 743.267029,515.646118 746.608704,516.702759   C750.721252,518.002991 755.033386,518.667480 759.155762,519.941650   C766.823730,522.311768 770.353394,526.706543 770.342651,533.375610   C770.331848,540.103027 765.970764,546.326233 758.696960,547.675232   C753.140076,548.705750 747.117554,548.624390 741.525269,547.694946   C735.166199,546.637939 731.689880,542.051392 729.981934,534.838379   C732.301331,534.279480 734.633911,533.717346 736.892761,533.173035   C742.720520,542.147766 748.013916,543.921570 757.839478,540.047913  z
M782.994202,547.834290   C782.419739,546.925110 781.347717,546.018127 781.343811,545.106506   C781.250305,523.139282 781.270935,501.171570 781.270935,478.783844   C783.971130,478.783844 786.518860,478.783844 789.481201,478.783844   C789.481201,486.464020 789.481201,494.188477 789.481201,502.842834   C790.938904,501.554810 791.761841,500.924103 792.471863,500.184906   C797.844116,494.592010 804.417297,494.001221 811.376343,495.961426   C817.997803,497.826447 821.543091,502.680939 822.550049,509.291443   C823.047546,512.557495 822.905396,515.920898 822.698853,519.332214   C821.507263,515.071655 820.669495,510.719147 819.831726,506.366669   C819.405090,506.351837 818.978455,506.337006 818.551758,506.322144   C817.808594,508.260620 816.428894,510.199097 816.428955,512.137512   C816.429199,522.226624 816.705505,532.318665 817.108765,542.400818   C817.157043,543.607849 818.559937,544.760681 819.334961,545.938599   C820.222229,544.706543 821.669067,543.566284 821.889282,542.224670   C822.493347,538.544678 822.581909,534.780029 822.874573,531.048889   C822.874573,536.524292 822.874573,541.999634 822.874573,547.729675   C820.417969,547.729675 817.977417,547.729675 814.876709,547.729675   C814.876709,542.565857 814.876221,537.333862 814.876831,532.101807   C814.877441,526.777588 814.925903,521.452942 814.869629,516.129333   C814.778870,507.553040 810.839050,503.013794 803.412170,502.817291   C794.947083,502.593323 790.043823,507.022552 789.778015,515.790710   C789.500854,524.932983 789.746643,534.090271 789.661438,543.240051   C789.647034,544.778198 789.113892,546.311523 788.408997,547.376709   C788.901367,533.897766 785.913635,520.696777 789.929260,507.831818   C790.160095,507.092316 789.937561,506.178619 789.807739,505.364838   C789.225281,501.713531 788.355042,498.088806 788.057861,494.416534   C787.750305,490.614807 788.154846,486.756409 787.866821,482.951630   C787.789673,481.931488 786.322815,481.016602 785.493896,480.053375   C784.669617,481.020966 783.173889,481.965118 783.139160,482.960297   C783.000610,486.923798 783.235596,490.908264 783.483459,494.875549   C783.930847,502.038818 784.497803,509.194519 784.978516,516.355835   C785.021667,516.998840 784.817444,517.662903 784.697998,518.311646   C784.141846,521.332764 783.199829,524.338196 783.088562,527.374634   C782.838928,534.186523 783.000183,541.013489 782.994202,547.834290  z
M891.236572,501.289978   C891.237549,499.345581 891.237549,497.864258 891.237549,496.120148   C893.915161,496.120148 896.334961,496.120148 899.190918,496.120148   C899.190918,498.099030 899.190918,500.023468 899.190918,503.789948   C904.406006,496.627899 910.102539,493.816742 917.734680,495.356842   C917.734680,497.933380 917.734680,500.466309 917.734680,503.126648   C916.078613,503.126648 914.603516,503.107178 913.129089,503.129883   C904.831299,503.257721 899.997620,507.664642 899.795288,515.990234   C899.541443,526.435730 899.734192,536.892151 899.734192,547.661743   C896.740601,547.661743 894.205261,547.661743 891.235657,547.661743   C891.235657,532.262207 891.235657,517.007568 891.236572,501.289978  z
M783.407715,547.908447   C783.000183,541.013489 782.838928,534.186523 783.088562,527.374634   C783.199829,524.338196 784.141846,521.332764 784.697998,518.311646   C784.817444,517.662903 785.021667,516.998840 784.978516,516.355835   C784.497803,509.194519 783.930847,502.038818 783.483459,494.875549   C783.235596,490.908264 783.000610,486.923798 783.139160,482.960297   C783.173889,481.965118 784.669617,481.020966 785.493896,480.053375   C786.322815,481.016602 787.789673,481.931488 787.866821,482.951630   C788.154846,486.756409 787.750305,490.614807 788.057861,494.416534   C788.355042,498.088806 789.225281,501.713531 789.807739,505.364838   C789.937561,506.178619 790.160095,507.092316 789.929260,507.831818   C785.913635,520.696777 788.901367,533.897766 788.001892,547.363403   C786.611267,547.874451 785.216187,547.928467 783.407715,547.908447  z
M822.963196,530.593750   C822.581909,534.780029 822.493347,538.544678 821.889282,542.224670   C821.669067,543.566284 820.222229,544.706543 819.334961,545.938599   C818.559937,544.760681 817.157043,543.607849 817.108765,542.400818   C816.705505,532.318665 816.429199,522.226624 816.428955,512.137512   C816.428894,510.199097 817.808594,508.260620 818.551758,506.322144   C818.978455,506.337006 819.405090,506.351837 819.831726,506.366669   C820.669495,510.719147 821.507263,515.071655 822.610840,519.685181   C822.935120,523.343628 822.993469,526.741089 822.963196,530.593750  z"/>
</svg>
